700 38 1 0          
16 Autodesk AutoCAD 19 ASM 215.0.0.4214 NT 24 Thu Sep 23 11:10:13 2010 
1 9.9999999999999995e-007 1e-010 
body $-1 -1 $-1 $1 $-1 $-1 #
lump $-1 -1 $-1 $-1 $2 $0 #
shell $-1 -1 $-1 $-1 $-1 $3 $-1 $1 #
face $4 -1 $-1 $5 $6 $2 $-1 $7 forward double out #
color-adesk-attrib $-1 -1 $-1 $-1 $3 256 #
face $8 -1 $-1 $-1 $9 $2 $-1 $10 forward double out #
loop $-1 -1 $-1 $11 $12 $3 #
cone-surface $-1 -1 $-1 0.5 0 2 -0.44721359549995798 0 0.89442719099991597 1.7354436625492493 0 0.86772183127462466 0.51538820320220757 I I 0 1 1.9402850002906638 forward I I I I #
color-adesk-attrib $-1 -1 $-1 $-1 $5 256 #
loop $-1 -1 $-1 $13 $14 $5 #
cone-surface $-1 -1 $-1 0 0 0 0.24253562503633297 0 0.97014250014533188 1.8823529411764706 0 -0.47058823529411764 0.51538820320220757 I I 0 1 1.9402850002906638 forward I I I I #
loop $-1 -1 $-1 $-1 $15 $3 #
coedge $-1 -1 $-1 $12 $12 $-1 $16 forward $6 $-1 #
loop $-1 -1 $-1 $-1 $17 $5 #
coedge $-1 -1 $-1 $18 $18 $15 $19 forward $9 $-1 #
coedge $-1 -1 $-1 $20 $20 $14 $19 reversed $11 $-1 #
edge $21 -1 $-1 $22 0 $22 6.2831853071795862 $12 $23 forward @7 unknown #
coedge $-1 -1 $-1 $17 $17 $-1 $24 forward $13 $-1 #
coedge $-1 -1 $-1 $14 $14 $20 $25 forward $9 $-1 #
edge $26 -1 $-1 $27 -1.5707963267948968 $28 1.5707963267948966 $14 $29 forward @7 unknown #
coedge $-1 -1 $-1 $15 $15 $18 $25 reversed $11 $-1 #
color-adesk-attrib $-1 -1 $-1 $-1 $16 256 #
vertex $-1 -1 $-1 $16 $30 #
ellipse-curve $-1 -1 $-1 -0.50000000000000022 0 4 0.44721359549995798 -0 -0.89442719099991597 1.7354436625492493 0 0.86772183127462466 0.51538820320220757 I I #
edge $31 -1 $-1 $32 0 $32 6.2831853071795862 $17 $33 forward @7 unknown #
edge $34 -1 $-1 $28 1.5707963267948966 $27 4.7123889803846897 $18 $29 forward @7 unknown #
color-adesk-attrib $-1 -1 $-1 $-1 $19 256 #
vertex $-1 -1 $-1 $19 $35 #
vertex $-1 -1 $-1 $25 $36 #
ellipse-curve $-1 -1 $-1 0.5 0 2 0.10911677189150902 -0 -0.99402893825681771 2.0564348593955204 0 0.22573943758208237 0.48337487264197032 I I #
point $-1 -1 $-1 1.2354436625492493 0 4.8677218312746247 #
color-adesk-attrib $-1 -1 $-1 $-1 $24 256 #
vertex $-1 -1 $-1 $24 $37 #
ellipse-curve $-1 -1 $-1 0 0 0 0 0 1 2 0 0 0.5 I I #
color-adesk-attrib $-1 -1 $-1 $-1 $25 256 #
point $-1 -1 $-1 0.49999999999999961 1 2 #
point $-1 -1 $-1 0.50000000000000011 -1 2 #
point $-1 -1 $-1 2 0 0 #
